<?xml version="1.0" encoding="UTF-8" standalone="no"?>

<svg
   width="1024"
   height="1024"
   viewBox="0 0 270.93334 270.93334"
   version="1.1"
   id="svg1"
   xmlns="http://www.w3.org/2000/svg"
   xmlns:svg="http://www.w3.org/2000/svg">
  <defs
     id="defs1" />
  <g
     id="layer1"
     transform="translate(-25.991586,-66.759451)">
    <path
       id="path9"
       style="fill:#000000;fill-opacity:0.998382;stroke:#000000;stroke-width:0.334879px;stroke-linecap:butt;stroke-linejoin:miter;stroke-opacity:1"
       d="m 61.644796,99.00265 3.863405,48.76377 a 16.315473,16.315473 42.735046 0 0 16.264507,15.02689 h 6.345902 l 32.39762,104.98044 a 35.011587,35.011587 53.957079 0 0 13.34054,18.33278 l 17.79388,12.48938 a 17.071064,17.071064 2.484728e-4 0 0 19.61458,9e-5 l 17.79445,-12.48956 a 35.011091,35.011091 126.04317 0 0 13.3406,-18.33269 L 234.7979,162.79331 h 6.3459 a 16.315473,16.315473 137.26495 0 0 16.2645,-15.02689 l 3.86341,-48.76377 -28.35043,33.52525 a 27.770413,27.770413 158.19566 0 1 -24.19057,9.67767 l -30.62744,-3.31206 a 154.8237,154.8237 179.99997 0 0 -33.29136,2e-5 l -30.62678,3.31202 a 27.770084,27.770084 21.804557 0 1 -24.190468,-9.67773 z m 45.440954,64.76979 41.51416,4.44434 a 120.31828,120.31828 179.97629 0 0 25.71421,-0.0106 l 41.09345,-4.4337 -7.67207,8.53293 a 26.274556,26.274556 150.00396 0 1 -14.09744,8.13786 l -13.39247,2.83474 a 12.454501,12.454501 129.0244 0 0 -9.87544,12.18454 v 71.14081 a 6.457053,6.457053 135 0 1 -6.45705,6.45705 h -5.3329 a 6.457053,6.457053 45 0 1 -6.45705,-6.45705 v -71.14081 a 12.454503,12.454503 50.975605 0 0 -9.87544,-12.18454 l -13.39244,-2.83474 a 26.274581,26.274581 29.996036 0 1 -14.09745,-8.13786 z" />
  </g>
</svg>
