<?xml version="1.0" encoding="UTF-8" standalone="no"?>
<!-- Created with Inkscape (http://www.inkscape.org/) -->

<svg
   width="2560"
   height="1280"
   viewBox="0 0 677.33332 338.66666"
   version="1.1"
   id="svg1"
   xml:space="preserve"
   xmlns:xlink="http://www.w3.org/1999/xlink"
   xmlns="http://www.w3.org/2000/svg"
   xmlns:svg="http://www.w3.org/2000/svg"><defs
     id="defs1"><linearGradient
       id="linearGradient4"><stop
         style="stop-color:#39d9c9;stop-opacity:1;"
         offset="0"
         id="stop4" /><stop
         style="stop-color:#39d9c9;stop-opacity:0;"
         offset="1"
         id="stop5" /></linearGradient><linearGradient
       id="linearGradient1"><stop
         style="stop-color:#313b44;stop-opacity:1;"
         offset="0"
         id="stop1" /><stop
         style="stop-color:#191a1c;stop-opacity:1;"
         offset="1"
         id="stop2" /></linearGradient><radialGradient
       xlink:href="#linearGradient1"
       id="radialGradient2"
       cx="338.66667"
       cy="169.33333"
       fx="338.66667"
       fy="169.33333"
       r="338.66666"
       gradientTransform="matrix(1,0,0,0.5,0,84.666667)"
       gradientUnits="userSpaceOnUse" /><linearGradient
       xlink:href="#linearGradient4"
       id="linearGradient5"
       x1="267.22919"
       y1="234.57429"
       x2="677.33334"
       y2="234.57429"
       gradientUnits="userSpaceOnUse" /></defs><g
     id="layer1"><rect
       style="fill:url(#radialGradient2);stroke-width:3"
       id="rect1"
       width="677.33331"
       height="338.66666"
       x="1.0172526e-05"
       y="5.0862632e-06" /><path
       id="path2"
       style="fill:#f9f9f9;stroke-width:1.5"
       d="M 158.30662 101.6 A 67.733337 67.733337 0 0 0 90.573283 169.33333 A 67.733337 67.733337 0 0 0 158.30662 237.06667 A 67.733337 67.733337 0 0 0 226.03995 169.33333 A 67.733337 67.733337 0 0 0 158.30662 101.6 z M 158.30662 103.1875 A 66.145834 66.145834 0 0 1 224.45245 169.33333 A 66.145834 66.145834 0 0 1 158.30662 235.47917 A 66.145834 66.145834 0 0 1 92.160783 169.33333 A 66.145834 66.145834 0 0 1 158.30662 103.1875 z M 109.56954 129.26653 L 111.45573 153.07696 A 7.96654 7.96654 0 0 0 119.39788 160.4145 L 122.4964 160.4145 L 138.31507 211.67442 A 17.095502 17.095502 0 0 0 144.8294 220.62581 L 153.51776 226.72415 A 8.3354805 8.3354805 0 0 0 163.09547 226.72415 L 171.78383 220.62581 A 17.09526 17.09526 0 0 0 178.29816 211.67442 L 194.11683 160.4145 L 197.21535 160.4145 A 7.96654 7.96654 0 0 0 205.1575 153.07696 L 207.04369 129.26653 L 193.20061 145.63659 A 13.559772 13.559772 0 0 1 181.38893 150.36188 L 166.43429 148.74441 A 75.597515 75.597515 0 0 0 150.17843 148.74441 L 135.2243 150.36188 A 13.559612 13.559612 0 0 1 123.41262 145.63659 L 109.56954 129.26653 z M 131.75785 160.8925 L 152.02845 163.0624 A 58.749164 58.749164 0 0 0 164.58375 163.05723 L 184.64919 160.8925 L 180.90317 165.05918 A 12.829374 12.829374 0 0 1 174.01935 169.03258 L 167.48022 170.41647 A 6.0812999 6.0812999 0 0 0 162.65829 176.36598 L 162.65829 211.10288 A 3.152858 3.152858 0 0 1 159.50499 214.25566 L 156.90153 214.25566 A 3.152858 3.152858 0 0 1 153.74824 211.10288 L 153.74824 176.36598 A 6.0813009 6.0813009 0 0 0 148.92631 170.41647 L 142.38717 169.03258 A 12.829386 12.829386 0 0 1 135.50387 165.05918 L 131.75785 160.8925 z " /><text
       xml:space="preserve"
       style="font-weight:bold;font-size:42.3333px;line-height:0;font-family:Comfortaa;-inkscape-font-specification:'Comfortaa Bold';text-align:center;text-anchor:middle;fill:#ffffff;stroke-width:0.264583"
       x="267.09372"
       y="160.25406"
       id="text2"><tspan
         id="tspan2"
         style="font-style:normal;font-variant:normal;font-weight:bold;font-stretch:normal;font-size:42.3333px;line-height:1.25;font-family:Montserrat;-inkscape-font-specification:'Montserrat Bold';text-align:start;text-anchor:start;fill:#ffffff;stroke-width:0.264583"
         x="267.09372"
         y="160.25406">TASKOSAUR</tspan><tspan
         style="font-style:normal;font-variant:normal;font-weight:normal;font-stretch:normal;font-size:16.9333px;line-height:1.15;font-family:Montserrat;-inkscape-font-specification:Montserrat;text-align:start;text-anchor:start;fill:#ffffff;stroke-width:0.264583"
         x="267.09372"
         y="188.97905"
         id="tspan3">Open Source Project Management</tspan><tspan
         style="font-style:normal;font-variant:normal;font-weight:normal;font-stretch:normal;font-size:16.9333px;line-height:1.15;font-family:Montserrat;-inkscape-font-specification:Montserrat;text-align:start;text-anchor:start;fill:#ffffff;stroke-width:0.264583"
         x="267.09372"
         y="208.45233"
         id="tspan4">with Conversational AI Task Execution</tspan></text><rect
       style="fill:url(#linearGradient5);fill-opacity:1;stroke-width:3"
       id="rect4"
       width="410.10416"
       height="2.6458333"
       x="267.22919"
       y="233.25137" /></g></svg>
