<?xml version="1.0" encoding="UTF-8" standalone="no"?>

<svg
   width="1023.9999"
   height="1023.9999"
   viewBox="0 0 270.93333 270.93333"
   version="1.1"
   id="svg1"
   xmlns="http://www.w3.org/2000/svg"
   xmlns:svg="http://www.w3.org/2000/svg">
  <defs
     id="defs1" />
  <g
     id="layer1"
     transform="translate(-25.991592,-50.884445)">
    <circle
       style="fill:#f9f9f9;stroke-width:3"
       id="path2"
       cx="161.45824"
       cy="186.35109"
       r="135.46666" />
    <path
       id="path1"
       style="fill:#000000;fill-opacity:1;stroke-width:2.92968"
       d="M 161.45824,54.05943 A 132.29166,132.29166 0 0 0 29.166575,186.35109 132.29166,132.29166 0 0 0 161.45824,318.64276 132.29166,132.29166 0 0 0 293.74991,186.35109 132.29166,132.29166 0 0 0 161.45824,54.05943 Z m -97.474165,52.15786 27.685748,32.73986 a 27.119222,27.119222 0 0 0 23.623297,9.45062 l 29.90874,-3.23432 a 151.19502,151.19502 0 0 1 32.51124,0 l 29.90975,3.23432 a 27.119543,27.119543 0 0 0 23.62329,-9.45062 l 27.68626,-32.73986 -3.77279,47.62104 a 15.933079,15.933079 0 0 1 -15.88344,14.67479 h -6.19712 l -31.63819,102.5197 a 34.190517,34.190517 0 0 1 -13.02813,17.90305 l -17.3772,12.19695 a 16.67096,16.67096 0 0 1 -19.1551,0 L 134.50372,288.93637 A 34.191002,34.191002 0 0 1 121.47561,271.03282 L 89.83743,168.51312 H 83.640295 A 15.933079,15.933079 0 0 1 67.756858,153.83833 Z m 44.376135,63.25216 7.49206,8.33281 a 25.65877,25.65877 0 0 0 13.76693,7.94729 l 13.07856,2.76801 a 12.162601,12.162601 0 0 1 9.64393,11.89921 v 69.473 a 6.3057156,6.3057156 0 0 0 6.30613,6.30614 h 5.20751 a 6.3057156,6.3057156 0 0 0 6.30615,-6.30614 v -69.473 a 12.162599,12.162599 0 0 1 9.6439,-11.89921 l 13.07859,-2.76801 a 25.658746,25.658746 0 0 0 13.76693,-7.94729 l 7.49206,-8.33281 -40.12998,4.32941 a 117.49832,117.49832 0 0 1 -25.11151,0.0106 z" />
  </g>
</svg>
