<?xml version="1.0" encoding="UTF-8" standalone="no"?>
<!-- Created with Inkscape (http://www.inkscape.org/) -->

<svg
   width="1024"
   height="1024"
   viewBox="0 0 270.93334 270.93334"
   version="1.1"
   id="svg1"
   inkscape:version="1.4.2 (ebf0e940, 2025-05-08)"
   sodipodi:docname="taskosaur.svg"
   xmlns:inkscape="http://www.inkscape.org/namespaces/inkscape"
   xmlns:sodipodi="http://sodipodi.sourceforge.net/DTD/sodipodi-0.dtd"
   xmlns="http://www.w3.org/2000/svg"
   xmlns:svg="http://www.w3.org/2000/svg">
  <sodipodi:namedview
     id="namedview1"
     pagecolor="#ffffff"
     bordercolor="#111111"
     borderopacity="1"
     inkscape:showpageshadow="0"
     inkscape:pageopacity="0"
     inkscape:pagecheckerboard="1"
     inkscape:deskcolor="#d1d1d1"
     inkscape:document-units="mm"
     showguides="true"
     inkscape:zoom="0.96929748"
     inkscape:cx="479.21305"
     inkscape:cy="628.80593"
     inkscape:window-width="2048"
     inkscape:window-height="1256"
     inkscape:window-x="0"
     inkscape:window-y="42"
     inkscape:window-maximized="1"
     inkscape:current-layer="layer1"
     showgrid="false">
    <sodipodi:guide
       position="-69.392865,249.05919"
       orientation="0,-1"
       id="guide1"
       inkscape:locked="false" />
    <sodipodi:guide
       position="-53.287989,99.201929"
       orientation="0,-1"
       id="guide2"
       inkscape:locked="false" />
  </sodipodi:namedview>
  <defs
     id="defs1">
    <inkscape:path-effect
       effect="fillet_chamfer"
       id="path-effect1"
       is_visible="true"
       lpeversion="1"
       nodesatellites_param="F,0,0,1,0,0,0,1 @ F,0,0,1,0,15.073973,0,1 @ F,0,0,1,0,0,0,1 @ F,0,0,1,0,11.981934,0,1 @ F,0,0,1,0,11.981934,0,1 @ F,0,0,1,0,11.981934,0,1 @ F,0,0,1,0,0,0,1 @ F,0,0,1,0,15.073973,0,1 @ F,0,0,1,0,0,0,1 @ F,0,0,1,0,14.751073,0,1 @ F,0,0,1,0,16.742724,0,1 @ F,0,0,1,0,14.751073,0,1 | F,0,0,1,0,0,0,1 @ F,0,0,1,0,12.931148,0,1 @ F,0,0,1,0,0,0,1 @ F,0,1,1,0,8.559861,0,1 @ F,0,0,1,0,10.094241,0,1 @ F,0,0,1,0,6.457053,0,1 @ F,0,0,1,0,6.457053,0,1 @ F,0,0,1,0,10.094241,0,1 @ F,0,0,1,0,8.559861,0,1"
       radius="0"
       unit="px"
       method="auto"
       mode="F"
       chamfer_steps="1"
       flexible="false"
       use_knot_distance="true"
       apply_no_radius="true"
       apply_with_radius="true"
       only_selected="false"
       hide_knots="false" />
  </defs>
  <g
     inkscape:label="Layer 1"
     inkscape:groupmode="layer"
     id="layer1"
     transform="translate(-25.991586,-66.759451)">
    <path
       id="path9"
       style="fill:#000000;fill-opacity:0.998382;stroke:#000000;stroke-width:0.334879px;stroke-linecap:butt;stroke-linejoin:miter;stroke-opacity:1"
       d="m 61.644796,99.00265 3.863405,48.76377 a 16.315473,16.315473 42.735046 0 0 16.264507,15.02689 h 6.345902 l 32.39762,104.98044 a 35.011587,35.011587 53.957079 0 0 13.34054,18.33278 l 17.79388,12.48938 a 17.071064,17.071064 2.484728e-4 0 0 19.61458,9e-5 l 17.79445,-12.48956 a 35.011091,35.011091 126.04317 0 0 13.3406,-18.33269 L 234.7979,162.79331 h 6.3459 a 16.315473,16.315473 137.26495 0 0 16.2645,-15.02689 l 3.86341,-48.76377 -28.35043,33.52525 a 27.770413,27.770413 158.19566 0 1 -24.19057,9.67767 l -30.62744,-3.31206 a 154.8237,154.8237 179.99997 0 0 -33.29136,2e-5 l -30.62678,3.31202 a 27.770084,27.770084 21.804557 0 1 -24.190468,-9.67773 z m 45.440954,64.76979 41.51416,4.44434 a 120.31828,120.31828 179.97629 0 0 25.71421,-0.0106 l 41.09345,-4.4337 -7.67207,8.53293 a 26.274556,26.274556 150.00396 0 1 -14.09744,8.13786 l -13.39247,2.83474 a 12.454501,12.454501 129.0244 0 0 -9.87544,12.18454 l 0,71.1408 a 6.457053,6.457053 135 0 1 -6.45705,6.45706 h -5.3329 a 6.457053,6.457053 45 0 1 -6.45705,-6.45706 v -71.1408 a 12.454503,12.454503 50.975605 0 0 -9.87544,-12.18454 l -13.39244,-2.83474 a 26.274581,26.274581 29.996036 0 1 -14.09745,-8.13786 z"
       sodipodi:nodetypes="ccccccccccccccccccccccc"
       inkscape:path-effect="#path-effect1"
       inkscape:original-d="m 61.644796,99.00265 5.053939,63.79066 H 88.11861 l 35.9309,116.42958 37.4084,26.25666 37.40909,-26.25666 35.9309,-116.42958 h 21.41987 l 5.05394,-63.79066 -37.87543,44.78885 -61.93869,-6.69805 -61.93803,6.69805 z m 45.440954,64.76979 54.37184,5.82083 53.94998,-5.82083 -13.39519,14.89823 -31.64223,6.6976 v 87.6921 h -18.247 v -87.6921 l -31.6422,-6.6976 z" />
  </g>
</svg>
